#N canvas 49 81 701 575 10;
#X msg 57 340 disconnect;
#X obj 213 249 metro 20;
#X obj 213 224 tgl 15 0 empty empty empty 17 7 0 10 -262144 -1 -1 0
1;
#X msg 68 370 get f 2;
#N canvas 0 22 450 278 (subpatch) 0;
#X array array1 255 float 2;
#X coords 0 0 254 1 200 140 1 0 0;
#X restore 447 64 graph;
#X obj 41 491 tabwrite array1;
#X obj 211 333 until;
#X msg 213 308 255;
#X obj 210 357 f;
#X obj 240 358 + 1;
#X obj 211 280 t b b;
#X msg 242 309 0;
#X msg 111 418 get f \$1;
#X obj 193 380 t f f;
#X msg 37 281 connect test 1024 1;
#N canvas 0 22 450 278 (subpatch) 0;
#X array array2 255 float 2;
#X coords 0 0 254 1 200 140 1 0 0;
#X restore 446 244 graph;
#X obj 312 325 tabwrite array2;
#X obj 293 137 until;
#X obj 293 161 f;
#X obj 323 162 + 1;
#X obj 293 84 t b b;
#X msg 331 114 0;
#X obj 293 32 tgl 15 0 empty empty empty 17 7 0 10 -262144 -1 -1 0
1;
#X obj 293 384 tabread array2;
#X obj 293 415 pack f f;
#X obj 293 357 t f f;
#X msg 293 443 set f \$2 \$1;
#X msg 293 110 256;
#X obj 293 55 metro 20;
#X obj 41 454 shm of_to_pd 1024 1;
#X msg 47 306 connect of_to_pd 1024 1;
#X obj 293 191 t f b f;
#X obj 342 249 + 1;
#X obj 312 248 f;
#X obj 312 274 % 127;
#X obj 312 298 / 127;
#X obj 293 521 shm pd_to_of 1024;
#X msg 316 472 connect pd_to_of 1024;
#X obj 484 430 adc~;
#X obj 571 443 metro 20;
#X obj 571 423 tgl 15 0 empty empty empty 17 7 0 10 -262144 -1 -1 0
1;
#X obj 484 456 +~ 0.5;
#X obj 484 481 clip~ -1 1;
#X msg 325 497 disconnect;
#X obj 557 514 tabwrite~ array2;
#X obj 312 220 spigot;
#X obj 362 189 tgl 15 0 empty empty empty 17 7 0 10 -262144 -1 -1 0
1;
#X obj 43 208 shm;
#X text 40 28 connect [key] [memory_size];
#X msg 43 129 connect my_segment 4;
#X floatatom 186 126 5 0 0 0 - - -;
#X msg 185 149 set f 0 \$1;
#X msg 185 178 get f 0;
#X obj 109 206 shm;
#X floatatom 109 229 5 0 0 0 - - -;
#X text 51 67 memory_size: 共有メモリのサイズ（バイト数）
;
#X text 65 87 例:;
#X text 87 98 float[255] = 4*256 = 1024;
#X text 88 85 float = 4バイト = 4;
#X text 50 51 key: セグメントID(name);
#X connect 0 0 29 0;
#X connect 1 0 10 0;
#X connect 2 0 1 0;
#X connect 3 0 29 0;
#X connect 6 0 8 0;
#X connect 7 0 6 0;
#X connect 8 0 9 0;
#X connect 8 0 13 0;
#X connect 9 0 8 1;
#X connect 10 0 7 0;
#X connect 10 1 11 0;
#X connect 11 0 8 1;
#X connect 12 0 29 0;
#X connect 13 0 12 0;
#X connect 13 1 5 1;
#X connect 14 0 29 0;
#X connect 17 0 18 0;
#X connect 18 0 19 0;
#X connect 18 0 31 0;
#X connect 19 0 18 1;
#X connect 20 0 27 0;
#X connect 20 1 21 0;
#X connect 21 0 18 1;
#X connect 22 0 28 0;
#X connect 23 0 24 0;
#X connect 24 0 26 0;
#X connect 25 0 23 0;
#X connect 25 1 24 1;
#X connect 26 0 36 0;
#X connect 27 0 17 0;
#X connect 28 0 20 0;
#X connect 29 0 5 0;
#X connect 30 0 29 0;
#X connect 31 0 25 0;
#X connect 31 1 45 0;
#X connect 31 2 16 1;
#X connect 32 0 33 1;
#X connect 33 0 32 0;
#X connect 33 0 34 0;
#X connect 34 0 35 0;
#X connect 35 0 16 0;
#X connect 37 0 36 0;
#X connect 38 0 41 0;
#X connect 39 0 44 0;
#X connect 40 0 39 0;
#X connect 41 0 42 0;
#X connect 42 0 44 0;
#X connect 43 0 36 0;
#X connect 45 0 33 0;
#X connect 46 0 45 1;
#X connect 49 0 47 0;
#X connect 49 0 53 0;
#X connect 50 0 51 0;
#X connect 51 0 47 0;
#X connect 52 0 53 0;
#X connect 53 0 54 0;
